<?xml version="1.0" standalone="no"?>
<!DOCTYPE svg PUBLIC "-//W3C//DTD SVG 20010904//EN"
 "http://www.w3.org/TR/2001/REC-SVG-20010904/DTD/svg10.dtd">
<svg version="1.0" xmlns="http://www.w3.org/2000/svg"
 width="432.000000pt" height="432.000000pt" viewBox="0 0 432.000000 432.000000"
 preserveAspectRatio="xMidYMid meet">
<metadata>
Created by potrace 1.14, written by Peter Selinger 2001-2017
</metadata>
<g transform="translate(0.000000,432.000000) scale(0.100000,-0.100000)"
fill="#000000" stroke="none">
<path d="M1572 4313 c19 -5 31 -30 22 -46 -4 -7 5 0 18 15 17 19 28 24 39 17
7 -5 24 -9 37 -9 13 0 22 -6 22 -15 0 -8 5 -15 11 -15 5 0 8 4 4 9 -3 5 0 13
6 17 8 4 9 3 5 -4 -6 -11 6 -16 27 -13 4 0 7 -4 7 -10 0 -6 -7 -9 -15 -6 -8 4
-17 2 -20 -4 -4 -5 -10 -7 -14 -5 -4 3 -8 -2 -8 -10 0 -10 4 -11 10 -5 7 7 15
7 24 0 9 -8 17 -8 27 0 10 8 16 8 25 -3 8 -10 9 -16 1 -21 -5 -3 -10 -1 -10 6
0 7 -3 9 -6 6 -4 -4 -2 -13 4 -20 7 -8 10 -17 7 -20 -3 -4 -2 -4 2 -1 5 3 8
10 8 16 0 14 43 30 50 18 3 -5 0 -12 -6 -16 -8 -4 -9 -3 -5 4 4 7 5 12 2 12
-3 0 -10 -9 -16 -20 -10 -18 -9 -19 15 -8 14 6 25 15 25 20 0 5 10 0 22 -12
12 -11 25 -20 30 -20 12 0 10 -28 -2 -35 -6 -4 -10 -3 -9 2 4 20 -2 33 -20 42
-14 8 -22 6 -35 -8 -13 -15 -14 -18 -1 -18 8 0 12 4 9 9 -3 4 2 8 10 8 18 0
20 -11 6 -28 -7 -9 -7 -9 2 -2 18 15 32 12 19 -3 -14 -18 -2 -30 15 -16 20 17
68 7 72 -15 3 -11 0 -16 -7 -11 -6 3 -8 12 -4 18 4 7 0 6 -10 -2 -9 -7 -17
-19 -16 -25 0 -7 2 -6 6 2 7 18 23 4 16 -16 -4 -11 0 -10 11 5 16 22 46 22 46
1 0 -7 -5 -6 -14 1 -10 9 -15 8 -19 -3 -4 -11 -1 -13 10 -9 12 5 14 3 8 -8 -7
-11 -6 -12 6 -3 15 12 49 15 49 5 0 -3 14 -12 30 -19 17 -8 30 -18 30 -24 0
-7 -4 -7 -13 0 -9 8 -16 6 -24 -7 -9 -14 -8 -18 3 -18 7 0 11 4 8 9 -10 16 9
8 22 -9 12 -15 13 -16 8 -2 -8 23 11 32 29 15 8 -8 27 -18 42 -22 20 -5 23 -9
13 -15 -16 -11 -31 -12 -25 -1 3 4 -6 8 -19 8 -13 1 -24 -1 -24 -5 0 -8 1 -8
76 -15 28 -2 65 -11 83 -20 17 -9 37 -14 44 -10 7 4 9 4 5 -1 -4 -4 0 -14 10
-22 15 -13 15 -13 -5 -3 -12 6 -41 11 -63 13 -30 1 -39 6 -35 16 5 11 3 12
-10 1 -9 -7 -40 -15 -69 -17 -30 -2 -85 -13 -122 -24 -38 -10 -77 -21 -86 -24
-9 -2 -26 -9 -38 -15 -20 -11 -59 -5 -70 10 -5 7 -52 35 -150 88 -25 13 -108
56 -185 94 -164 82 -194 103 -236 164 l-31 46 -19 -28 c-10 -15 -15 -32 -12
-37 3 -4 -5 -11 -16 -14 -18 -5 -21 -10 -15 -39 3 -19 2 -34 -2 -34 -5 0 -10
-26 -10 -58 -1 -31 -5 -84 -9 -117 -9 -69 -13 -286 -6 -299 2 -5 6 -32 8 -60
2 -28 5 -57 8 -64 4 -12 -13 -62 -26 -72 -3 -3 -11 -15 -18 -28 -13 -24 -8
-29 39 -35 21 -3 29 -15 48 -71 l23 -67 -29 -47 c-37 -59 -143 -269 -148 -292
0 -3 -20 -45 -43 -95 -47 -100 -46 -97 -92 -210 -33 -84 -47 -124 -55 -164 -3
-13 -10 -33 -15 -43 -6 -11 -8 -22 -5 -25 3 -4 2 -11 -3 -17 -8 -10 -13 -34
-26 -123 -2 -11 -6 -29 -9 -40 -6 -21 -19 -165 -18 -203 0 -14 3 -55 6 -91 l7
-66 -38 -17 c-106 -47 -203 -36 -269 32 -15 15 -21 18 -14 7 29 -41 71 -73
110 -83 27 -7 185 -6 213 1 21 6 27 4 27 -8 0 -20 78 -105 96 -105 8 0 14 -4
14 -10 0 -5 9 -10 20 -10 26 0 25 -16 -1 -38 -41 -34 -69 -105 -73 -186 -2
-35 -5 -39 -31 -42 -49 -5 -150 -62 -200 -111 -46 -47 -94 -129 -110 -188 -5
-16 -10 -37 -12 -45 -14 -48 -4 -179 17 -235 39 -102 52 -280 26 -355 -8 -23
-9 -37 -3 -33 6 3 7 1 3 -5 -11 -18 -47 -164 -48 -197 -1 -16 1 -39 5 -51 9
-25 50 -46 73 -37 15 5 16 0 12 -45 l-5 -52 1745 0 c1744 0 1745 0 1727 20
-10 11 -15 20 -12 20 4 0 -1 9 -10 19 -20 21 -44 52 -88 111 -63 86 -68 89
-120 95 -80 9 -162 21 -209 31 -11 3 -34 7 -51 10 -66 11 -102 28 -137 66 -21
22 -42 37 -48 33 -22 -14 -78 18 -95 54 -9 19 -25 41 -36 49 -19 13 -17 38 2
27 5 -4 17 -8 26 -10 10 -2 47 -14 83 -28 36 -13 76 -23 88 -22 12 1 22 -2 22
-6 0 -8 79 -5 102 5 26 12 42 70 26 95 -19 31 -131 70 -248 86 -14 2 -27 4
-29 4 -21 3 163 137 304 222 89 54 182 99 189 92 3 -4 6 -1 6 5 0 7 9 12 20
12 13 0 26 -13 39 -38 25 -49 127 -156 169 -176 17 -9 32 -14 32 -12 0 9 65
-17 85 -34 11 -9 37 -26 58 -38 l37 -21 0 151 c0 125 -2 149 -14 139 -10 -8
-24 -3 -62 26 -27 20 -51 40 -54 43 -3 4 -25 20 -50 36 -120 81 -234 113 -382
109 -114 -3 -169 -10 -210 -26 -26 -11 -31 -8 -74 37 -58 62 -90 120 -74 139
14 16 60 135 53 135 -3 0 0 6 6 14 7 8 13 22 15 32 2 11 12 48 21 84 10 36 19
98 21 139 1 40 5 75 7 77 2 2 16 -34 31 -80 35 -110 40 -202 14 -283 -19 -63
-62 -118 -82 -106 -8 4 -8 2 -1 -5 26 -29 148 31 214 105 46 51 56 70 72 141
16 72 29 84 22 22 -2 -30 -16 -79 -29 -109 -13 -29 -24 -56 -24 -59 0 -3 16
11 36 32 39 40 69 101 58 118 -5 7 -2 8 7 3 12 -7 12 -6 1 7 -11 14 -10 17 9
23 13 4 17 10 11 14 -7 4 -13 16 -15 26 -5 30 -38 137 -49 162 -8 17 -6 26 12
45 12 12 29 37 37 53 9 17 21 33 27 37 6 4 8 8 4 8 -4 0 -3 12 3 28 13 33 18
56 21 99 1 18 5 33 8 34 74 10 138 49 200 123 23 27 22 27 -24 -7 -27 -20 -61
-37 -75 -38 -14 0 -45 -2 -68 -3 -36 -2 -44 1 -48 18 -10 34 -49 121 -57 124
-5 2 -8 8 -8 13 0 21 -101 139 -218 257 l-123 124 -6 67 c-10 132 -9 186 5
183 6 -1 12 3 12 9 0 5 4 8 9 5 4 -3 27 13 51 36 l42 41 -30 16 c-22 12 -27
20 -21 31 21 39 80 200 95 260 2 8 8 33 14 55 6 22 13 55 16 74 2 19 7 37 9
41 3 4 8 25 11 46 8 48 12 69 14 69 4 0 11 54 13 95 1 25 7 48 14 53 6 4 10
19 8 34 -2 22 0 24 9 13 12 -16 96 -23 96 -9 0 4 -9 6 -20 4 -11 -2 -22 1 -25
6 -4 5 -10 7 -14 4 -5 -2 -17 2 -27 11 -18 14 -18 15 4 4 12 -6 22 -8 22 -4 0
3 7 1 15 -6 12 -10 15 -10 15 1 0 9 3 10 8 4 4 -6 23 -11 42 -12 19 -1 37 -2
40 -4 3 -1 14 -2 25 -3 14 -1 19 -7 18 -21 -1 -20 -1 -20 13 -1 8 11 14 16 14
12 0 -4 7 0 16 8 13 14 14 18 1 31 -8 8 -17 11 -21 8 -3 -4 -6 -2 -6 3 0 5
-10 11 -22 12 -37 5 -63 9 -65 12 -5 4 -21 7 -45 9 -12 0 -18 4 -14 9 13 12
50 8 64 -8 11 -13 12 -12 4 5 -5 11 -8 28 -6 38 1 11 -1 16 -4 12 -4 -4 -7
-12 -7 -18 0 -7 -11 -13 -25 -14 -14 -1 -37 -4 -52 -7 -21 -3 -25 -1 -21 11 3
8 8 11 12 5 4 -6 14 -4 26 5 18 14 18 15 2 9 -11 -3 -24 -3 -30 1 -13 8 -42
13 -72 14 -16 0 -17 2 -5 9 8 5 18 6 22 4 4 -3 5 3 1 12 -5 13 -3 15 7 9 9 -6
11 -4 6 4 -5 7 -11 10 -14 7 -3 -3 -11 -1 -19 6 -11 8 -17 8 -26 -2 -10 -10
-8 -12 6 -7 12 5 16 3 11 -5 -5 -7 -2 -8 7 -3 11 6 12 5 2 -5 -10 -11 -16 -10
-32 4 -11 10 -19 23 -18 29 1 6 -3 11 -9 12 -13 0 -98 75 -87 75 5 0 -7 8 -24
16 -32 16 -44 34 -23 34 6 0 10 -4 10 -9 0 -5 7 -11 14 -14 10 -4 13 -1 9 9
-4 10 0 12 13 8 20 -8 19 -6 -10 16 -17 13 -18 13 -11 1 6 -11 4 -13 -9 -8
-10 4 -20 7 -22 7 -2 0 -4 5 -4 11 0 5 4 8 8 5 4 -2 9 5 9 16 2 19 1 19 -11 3
-13 -18 -14 -17 -24 0 -9 17 -10 16 -9 -7 1 -14 5 -24 9 -22 4 2 9 0 13 -6 10
-17 -20 -11 -41 8 -10 9 -45 30 -76 47 -32 16 -58 33 -58 37 0 4 -3 7 -7 7
-19 -3 -27 2 -14 10 8 5 -37 8 -108 8 -118 0 -121 -1 -104 -19 9 -11 25 -17
35 -15 20 6 25 -9 6 -16 -10 -4 -10 -6 -1 -6 7 -1 17 8 23 19 10 19 12 19 45
3 19 -9 32 -20 29 -25 -3 -4 6 -8 20 -8 14 0 26 -5 26 -11 0 -5 -4 -7 -10 -4
-16 10 -12 0 10 -25 11 -13 20 -19 20 -14 0 6 -6 16 -12 23 -11 10 -9 12 7 9
21 -3 35 -16 35 -33 0 -5 -5 -3 -10 5 -8 13 -10 12 -10 -4 0 -12 5 -16 15 -13
18 7 30 -9 13 -17 -7 -3 -2 -3 12 0 25 5 25 5 5 -12 -20 -16 -20 -16 4 -9 18
6 22 4 15 -6 -6 -12 -5 -12 8 -1 11 9 18 10 23 2 3 -5 1 -10 -4 -10 -17 0 -13
-27 5 -34 13 -5 14 -4 6 7 -12 14 -7 27 10 27 5 0 6 -5 2 -12 -5 -7 -3 -8 6
-3 10 6 7 12 -11 26 -13 10 -25 16 -27 14 -5 -4 -52 41 -52 50 0 4 23 -9 50
-29 28 -20 55 -36 61 -36 7 0 4 -11 -6 -27 -18 -27 -18 -28 1 -12 26 21 46 18
60 -8 6 -13 13 -21 16 -18 2 3 15 -7 29 -22 16 -18 17 -22 5 -13 -18 14 -19
13 -13 -5 7 -19 7 -19 -8 -1 -8 10 -12 23 -8 29 3 6 1 7 -5 3 -7 -4 -16 3 -23
17 -6 13 -17 24 -24 24 -8 0 -12 -4 -9 -9 3 -4 1 -8 -5 -8 -5 0 -8 -7 -7 -15
3 -18 46 -51 46 -36 0 6 -5 11 -11 11 -5 0 -7 5 -4 10 5 8 11 7 21 -1 7 -6 12
-15 9 -19 -5 -9 21 -23 45 -25 8 0 14 -6 12 -13 -1 -7 2 -12 8 -12 5 0 10 5
10 12 0 6 3 9 6 6 3 -4 -1 -20 -10 -36 -14 -27 -14 -31 4 -47 11 -10 18 -22
17 -28 -1 -6 3 -11 10 -12 6 0 15 -4 20 -9 4 -5 3 -6 -3 -3 -14 8 -37 -17 -26
-28 4 -5 1 -5 -5 -1 -7 4 -13 3 -13 -3 0 -5 6 -11 13 -14 8 -3 4 -11 -13 -23
-35 -27 -55 -33 -71 -23 -15 9 -8 12 33 12 9 0 16 5 15 11 -1 6 3 10 9 9 7 -1
11 9 10 22 -1 29 -16 34 -16 6 0 -11 -5 -23 -12 -27 -8 -5 -9 -1 -5 12 7 18 6
18 -6 2 -8 -10 -17 -15 -21 -11 -3 3 2 16 11 27 18 21 18 21 -4 2 -19 -16 -21
-22 -10 -34 10 -13 9 -15 -5 -9 -13 4 -16 1 -13 -14 2 -10 7 -24 10 -29 3 -6
-1 -7 -9 -4 -16 6 -20 16 -17 44 2 13 1 13 -8 0 -6 -8 -8 -24 -5 -35 4 -16 3
-17 -5 -5 -8 11 -11 12 -11 2 0 -7 -4 -11 -9 -8 -5 4 -12 0 -14 -6 -4 -8 -6
-7 -6 3 -1 9 6 19 14 23 8 3 15 11 15 18 0 9 -3 9 -10 -2 -9 -13 -11 -13 -19
0 -5 8 -7 18 -5 22 9 15 -3 8 -17 -9 -8 -9 -9 -14 -3 -10 14 8 24 -12 15 -33
-4 -10 -23 -16 -59 -17 -39 -2 -51 1 -45 10 4 7 -1 6 -11 -2 -19 -16 -56 -22
-56 -11 0 4 -14 7 -32 6 -18 0 -32 4 -34 12 -1 7 0 8 3 2 8 -16 26 -11 19 6
-3 8 -2 12 4 9 15 -9 52 14 44 28 -4 7 -4 9 1 5 4 -4 14 -3 22 3 10 9 13 8 13
-1 0 -8 3 -10 6 -7 4 4 1 14 -7 24 -12 15 -12 16 6 10 19 -7 19 -6 2 7 -15 12
-16 14 -2 20 8 3 15 11 14 18 0 10 -2 10 -6 0 -4 -10 -8 -9 -18 5 -10 13 -10
23 -2 38 9 18 8 18 -5 7 -13 -10 -18 -10 -24 -1 -4 7 -3 9 4 5 6 -4 10 1 9 13
-1 16 -4 18 -16 8 -11 -9 -13 -9 -8 0 4 7 -1 14 -13 18 -11 3 -19 9 -19 13 3
21 -2 32 -13 26 -6 -4 -21 5 -35 22 -17 21 -22 23 -17 9 7 -20 7 -20 -9 0 -11
15 -12 22 -4 27 9 6 9 8 0 8 -6 0 -15 -4 -18 -10 -8 -13 -25 -13 -25 1 0 5 4
8 8 5 5 -3 9 1 9 9 0 10 -6 11 -23 5 -27 -11 -44 7 -23 22 11 8 11 9 -2 5 -9
-3 -23 0 -30 6 -9 8 -8 5 1 -8 14 -18 13 -19 -1 -8 -9 7 -19 10 -23 6 -4 -4
-4 1 0 11 5 14 4 17 -4 12 -7 -4 -12 -2 -12 5 0 8 -5 7 -17 -2 -14 -12 -16
-12 -8 0 6 11 4 13 -8 8 -11 -4 -20 0 -27 12 -12 23 -45 32 -59 18 -9 -9 -13
-6 -17 11 -4 12 -11 22 -16 22 -5 0 -6 -4 -3 -10 3 -5 -1 -10 -10 -10 -9 0
-14 3 -12 8 3 4 -1 13 -9 20 -8 7 -14 8 -14 2 0 -5 -7 -10 -16 -10 -8 0 -12 5
-9 10 8 12 -8 13 -20 1 -15 -14 -58 6 -52 24 4 9 1 12 -8 8 -8 -3 -12 -10 -8
-17 3 -6 -3 -3 -14 7 -11 10 -27 15 -37 11 -10 -4 -16 -1 -16 7 0 12 -2 12 -9
0 -10 -15 -51 -6 -52 12 0 7 -4 3 -9 -8 -7 -16 -9 -16 -9 -4 -1 20 -28 32 -37
17 -4 -6 -3 -8 4 -4 6 3 13 3 16 -2 3 -5 -9 -8 -26 -7 -18 1 -34 7 -36 13 -2
7 -8 12 -13 12 -6 0 -7 -5 -3 -11 4 -7 -1 -9 -12 -7 -11 2 -18 10 -16 17 1 7
-2 9 -8 6 -6 -4 -9 -13 -6 -21 3 -8 0 -11 -9 -7 -8 3 -12 10 -8 17 4 7 1 7 -7
-1 -11 -10 -16 -9 -27 5 -8 9 -12 11 -8 5 11 -23 -7 -38 -22 -18 -7 11 -13 14
-13 7 0 -6 -10 -16 -22 -23 -18 -10 -20 -9 -14 6 5 15 4 16 -9 5 -8 -7 -22 -9
-31 -6 -14 5 -15 4 -5 -8 9 -11 6 -16 -18 -24 -16 -6 -33 -7 -37 -4 -4 4 -4 1
0 -6 4 -7 13 -9 19 -6 7 4 2 -4 -9 -17 -12 -13 -19 -31 -17 -39 4 -12 3 -13
-5 -1 -12 17 -33 5 -25 -14 3 -8 0 -15 -6 -15 -6 0 -11 5 -11 12 0 6 -2 9 -5
6 -10 -9 7 -38 18 -31 6 4 7 1 2 -8 -5 -8 -4 -11 1 -6 5 5 9 13 9 18 0 5 5 9
10 8 6 0 9 -7 7 -15 -2 -8 7 -24 20 -35 17 -15 9 -13 -29 8 -29 15 -53 31 -53
35 0 4 -5 8 -11 8 -17 0 -41 29 -33 41 4 7 1 10 -7 7 -8 -3 -22 -1 -32 4 -14
7 -16 12 -7 23 7 8 9 19 5 26 -6 8 -2 8 13 0 31 -17 38 -13 14 8 -12 10 -22
22 -22 26 0 4 -8 14 -18 23 -10 10 -13 13 -6 9 13 -8 31 10 20 20 -3 4 -6 1
-6 -6 0 -7 -5 -9 -12 -4 -18 11 -32 10 -40 -2 -5 -6 -8 -6 -8 2 0 9 -49 12
-192 11 -106 0 -186 -3 -176 -5z m48 -7 c0 -3 -4 -8 -10 -11 -5 -3 -10 -1 -10
4 0 6 5 11 10 11 6 0 10 -2 10 -4z m1540 -4 c0 -4 -11 -9 -25 -10 -14 -1 -25
2 -25 6 0 4 11 9 25 10 14 1 25 -2 25 -6z m-1358 -46 c7 4 8 2 4 -4 -3 -6 2
-15 11 -21 10 -6 13 -11 7 -11 -6 0 -17 7 -24 15 -10 12 -16 13 -27 4 -11 -9
-17 -9 -26 0 -9 10 -8 11 5 6 12 -5 20 -1 25 11 4 11 8 13 11 6 2 -7 9 -9 14
-6z m848 -16 c0 -5 -2 -10 -4 -10 -3 0 -8 5 -11 10 -3 6 -1 10 4 10 6 0 11 -4
11 -10z m-218 -44 c-3 -5 0 -6 7 -2 6 4 9 11 6 16 -3 5 0 12 6 16 8 4 9 3 5
-4 -4 -7 -2 -12 4 -12 6 0 9 -4 6 -8 -9 -15 69 -7 82 8 10 13 11 12 5 -4 -5
-15 -3 -17 8 -10 20 12 40 14 33 3 -3 -5 -10 -7 -15 -4 -5 4 -9 1 -9 -5 0 -7
7 -9 16 -6 9 4 22 2 29 -4 9 -8 15 -8 20 0 4 6 1 9 -6 8 -6 -2 -13 3 -14 10
-2 7 -1 8 2 2 2 -5 9 -8 14 -4 5 3 12 -2 15 -11 5 -13 9 -13 22 -3 13 11 15
10 10 -3 -4 -9 -1 -16 8 -16 7 0 11 4 8 9 -10 15 9 8 23 -9 8 -10 12 -13 9 -6
-7 13 19 12 31 -2 4 -4 2 -5 -6 0 -10 6 -12 4 -6 -4 5 -9 10 -10 18 -2 14 14
27 14 27 0 0 -5 -4 -7 -10 -4 -5 3 -10 1 -10 -4 0 -14 13 -14 28 1 9 9 12 9
12 0 0 -7 6 -12 13 -11 30 4 48 -2 41 -13 -5 -8 0 -9 15 -5 17 4 21 2 17 -9
-3 -8 -1 -14 4 -14 6 0 10 5 10 12 0 15 15 0 15 -15 1 -7 6 -11 12 -10 6 1 17
-4 23 -12 7 -8 18 -15 24 -15 6 0 4 5 -4 10 -12 8 -10 10 8 10 15 0 21 -4 16
-12 -5 -8 -2 -9 10 -5 9 4 15 3 12 -1 -2 -4 -1 -14 5 -22 6 -10 9 -11 9 -2 0
23 20 12 69 -37 37 -37 48 -44 44 -27 -2 11 4 4 13 -16 11 -27 22 -38 37 -38
20 0 20 -1 2 -13 -14 -11 -15 -16 -5 -22 9 -5 11 -4 6 3 -4 7 -3 12 2 12 6 0
9 -11 8 -24 0 -13 -4 -22 -8 -20 -4 2 -10 -1 -14 -7 -4 -8 -9 -7 -15 2 -6 10
-9 8 -9 -8 0 -13 -5 -23 -11 -23 -5 0 -8 4 -5 9 4 5 -2 8 -11 6 -10 -2 -21 -4
-25 -4 -4 -1 -5 -9 -2 -18 3 -10 -2 -7 -10 7 -14 24 -17 24 -20 1 0 -5 -4 -13
-8 -17 -4 -3 -5 3 -3 15 3 14 0 19 -7 15 -7 -5 -9 -1 -5 9 3 10 3 17 -2 17 -5
0 -11 -9 -14 -20 -3 -11 -1 -18 4 -14 5 3 6 -2 3 -10 -9 -23 -24 -20 -19 4 2
11 -1 23 -7 26 -6 4 -8 2 -4 -4 3 -6 2 -13 -3 -16 -11 -7 -23 22 -14 36 4 7 1
8 -6 3 -7 -4 -10 -16 -8 -27 3 -11 3 -17 0 -14 -3 3 -14 1 -24 -4 -11 -7 -20
-7 -24 0 -3 5 -12 7 -20 3 -8 -3 -15 -1 -15 5 0 5 16 8 35 6 29 -2 33 -1 22
10 -6 8 -14 11 -17 7 -9 -12 -30 -11 -30 1 -1 7 -7 2 -15 -12 -8 -14 -14 -19
-15 -12 0 15 -50 13 -63 -3 -5 -6 -7 -4 -4 5 2 8 10 14 16 12 7 -1 10 2 7 7
-4 5 0 12 6 14 9 4 10 6 1 6 -6 1 -15 -3 -18 -9 -9 -15 -27 -12 -19 3 4 6 -3
3 -15 -8 -14 -12 -25 -15 -29 -9 -4 6 -14 11 -22 12 -41 2 -58 7 -54 14 3 4 1
8 -5 8 -6 0 -8 8 -5 18 5 13 4 14 -4 3 -6 -9 -12 -10 -16 -3 -4 6 -13 9 -21 6
-8 -4 -12 -11 -8 -17 4 -6 1 -7 -8 -1 -8 5 -23 9 -34 9 -11 0 -19 6 -17 13 1
6 -3 12 -9 12 -5 0 -8 4 -5 9 9 14 -20 21 -33 8 -9 -9 -10 -7 -5 8 7 18 6 19
-11 5 -17 -14 -17 -13 -12 10 4 14 4 19 1 12 -3 -7 -14 -17 -25 -22 -15 -8
-17 -7 -13 5 3 8 10 13 14 10 11 -7 6 22 -5 32 -4 4 -5 3 -2 -3 4 -7 -1 -18
-10 -25 -12 -10 -14 -10 -9 -1 5 8 1 12 -11 12 -15 0 -16 2 -3 11 13 9 13 10
-1 6 -9 -3 -22 0 -29 6 -8 7 -10 7 -7 1 3 -6 0 -11 -7 -11 -8 0 -12 6 -10 12
3 7 -3 18 -13 26 -16 13 -17 12 -5 -3 11 -13 11 -18 0 -24 -7 -4 -10 -4 -6 1
4 4 0 15 -9 24 -12 11 -17 13 -21 3 -2 -6 -8 -12 -14 -12 -6 0 -5 7 3 16 10
13 10 17 -1 24 -8 5 -18 6 -23 3 -4 -3 -7 3 -5 12 2 10 -4 20 -12 22 -12 4
-12 3 -1 -5 8 -6 9 -12 3 -16 -11 -7 -25 21 -17 34 3 5 -4 11 -15 15 -11 3
-20 11 -20 16 0 6 6 7 13 3 6 -4 3 3 -8 16 l-20 23 22 -12 c15 -7 24 -8 28 -1
4 6 3 9 -2 8 -4 -2 -9 0 -10 5 -2 4 0 7 3 6 4 0 11 5 15 13 7 10 9 10 9 -2 1
-12 2 -12 10 2 6 10 18 14 30 11 11 -3 20 -1 20 3 0 5 11 9 24 9 13 0 22 -3
19 -7 -2 -5 3 -8 11 -8 9 0 16 7 16 15 0 13 2 14 14 3 8 -7 11 -17 8 -22z m98
18 c0 -8 -19 -13 -24 -6 -3 5 1 9 9 9 8 0 15 -2 15 -3z m440 -136 c0 -7 -5 -6
-13 1 -8 6 -18 7 -22 3 -5 -4 -5 -2 -1 5 8 14 36 6 36 -9z m518 0 c-2 -6 -10
-14 -16 -16 -7 -2 -10 2 -6 12 7 18 28 22 22 4z m257 -108 c5 -8 12 -7 23 2
15 12 16 11 3 -5 -11 -14 -17 -15 -30 -5 -9 7 -18 14 -20 15 -2 2 1 3 7 3 6 0
14 -5 17 -10z m-551 -36 c3 -8 2 -12 -4 -9 -6 3 -10 10 -10 16 0 14 7 11 14
-7z m-644 -19 c0 -8 -4 -15 -10 -15 -5 0 -7 7 -4 15 4 8 8 15 10 15 2 0 4 -7
4 -15z m120 -46 c0 -5 -4 -9 -8 -9 -5 0 -9 7 -9 15 0 8 4 12 9 9 4 -3 8 -9 8
-15z m-1560 -1080 c-17 -46 -31 -86 -32 -89 0 -3 -2 -9 -4 -15 -7 -22 -36
-142 -40 -165 -2 -14 -7 -36 -10 -50 -3 -14 -8 -36 -10 -50 -2 -14 -7 -36 -10
-50 -7 -29 -12 -60 -18 -110 -3 -19 -5 -35 -6 -35 -1 0 -3 -57 -4 -126 -2
-116 -4 -129 -28 -171 -26 -43 -57 -77 -59 -64 -1 3 -2 9 -3 14 -21 83 -29
288 -14 336 6 17 10 40 9 51 0 19 25 109 38 130 3 6 6 16 8 24 3 24 88 226 95
229 5 2 8 10 8 18 0 8 19 51 42 97 23 45 42 84 43 87 1 11 17 31 21 27 2 -2
-10 -42 -26 -88z m2446 -166 c57 -61 132 -188 149 -253 0 -3 7 -22 14 -43 7
-21 11 -40 8 -43 -6 -6 -95 85 -115 119 -9 15 -20 27 -25 27 -4 0 -5 5 -2 10
3 6 3 10 -2 10 -9 0 -19 22 -51 105 -43 113 -36 132 24 68z m83 -444 c9 -20
16 -27 21 -19 6 9 13 9 28 1 11 -6 29 -11 39 -11 38 0 44 -15 50 -118 5 -89 4
-102 -10 -102 -9 0 -19 10 -23 23 -4 12 -10 24 -13 27 -4 3 -20 28 -37 55 -64
108 -100 187 -81 179 7 -2 18 -18 26 -35z m-2592 -355 c44 -66 55 -132 26
-161 -10 -10 -26 -18 -35 -18 -27 0 -92 66 -115 117 -12 26 -10 30 17 49 16
12 27 25 25 29 -2 4 2 7 10 7 8 0 16 -10 17 -21 2 -35 3 -39 24 -86 21 -45 54
-83 54 -61 0 6 -4 11 -9 11 -8 0 -24 37 -22 53 1 4 -3 7 -9 7 -5 0 -9 3 -9 8
1 4 0 9 -1 12 -9 23 -22 110 -16 110 3 0 23 -25 43 -56z m15 -404 c1 -16 2
-38 2 -47 1 -11 -5 -17 -14 -14 -8 2 -22 4 -30 6 -8 1 -14 6 -12 11 10 35 14
44 23 44 5 0 8 3 8 8 -3 14 1 22 11 22 6 0 11 -13 12 -30z m2377 -306 c1 -7
-10 -15 -23 -18 -14 -3 -32 -13 -41 -22 -25 -25 -28 -11 -9 45 l16 51 29 -23
c15 -12 28 -27 28 -33z"/>
<path d="M3070 4006 c0 -2 7 -7 16 -10 8 -3 12 -2 9 4 -6 10 -25 14 -25 6z"/>
<path d="M2610 3919 c0 -6 -6 -9 -13 -6 -8 3 -14 -1 -14 -9 0 -17 13 -18 23
-3 4 8 9 7 15 -2 6 -10 8 -7 6 9 -1 22 -17 32 -17 11z"/>
<path d="M2700 3883 c0 -19 21 -27 33 -13 9 10 9 11 -2 5 -8 -4 -17 -2 -22 6
-6 9 -9 10 -9 2z"/>
<path d="M2753 3883 c4 -3 1 -13 -6 -21 -10 -13 -9 -14 1 -8 7 4 20 2 29 -6
14 -11 13 -8 -1 15 -10 15 -21 27 -24 27 -3 0 -2 -3 1 -7z"/>
<path d="M2955 3881 c-3 -5 -2 -12 3 -15 5 -3 9 1 9 9 0 17 -3 19 -12 6z"/>
<path d="M2876 3851 c-3 -5 1 -11 9 -14 9 -4 12 -1 8 9 -6 16 -10 17 -17 5z"/>
<path d="M3667 2144 c-7 -7 46 -64 60 -64 4 1 -1 8 -13 18 -11 9 -25 25 -30
35 -6 10 -13 15 -17 11z"/>
<path d="M3735 2060 c3 -5 8 -10 11 -10 2 0 4 5 4 10 0 6 -5 10 -11 10 -5 0
-7 -4 -4 -10z"/>
<path d="M3050 4312 c0 -4 10 -13 23 -21 22 -14 22 -14 3 8 -20 22 -26 25 -26
13z"/>
<path d="M3340 4302 c6 -12 15 -20 20 -17 4 3 11 0 13 -5 4 -7 5 -6 4 1 -2 6
-6 9 -9 7 -4 -2 -14 6 -23 17 -16 19 -16 19 -5 -3z"/>
<path d="M3360 4316 c0 -2 7 -7 16 -10 8 -3 12 -2 9 4 -6 10 -25 14 -25 6z"/>
<path d="M1550 4286 c0 -2 7 -6 15 -10 8 -3 15 -1 15 4 0 6 -7 10 -15 10 -8 0
-15 -2 -15 -4z"/>
<path d="M1650 4281 c0 -7 -4 -10 -9 -7 -5 3 -14 0 -20 -8 -8 -10 -8 -16 3
-25 10 -8 16 -9 21 -1 4 6 3 9 -2 8 -4 -2 -8 1 -8 7 0 5 8 11 18 12 12 2 16
-1 11 -9 -5 -8 0 -7 11 2 17 14 18 13 11 -5 -6 -16 -5 -18 5 -7 10 9 10 15 1
24 -7 7 -12 8 -12 4 0 -5 -7 -3 -15 4 -11 9 -15 9 -15 1z"/>
<path d="M3390 4276 c0 -12 5 -16 15 -12 8 3 15 2 15 -2 0 -5 14 -19 32 -32
l31 -23 -19 26 c-10 14 -21 23 -23 21 -3 -3 -11 6 -18 18 -8 15 -12 18 -13 8
0 -13 -1 -13 -10 0 -8 13 -10 12 -10 -4z"/>
<path d="M3435 4280 c3 -5 8 -10 11 -10 2 0 4 5 4 10 0 6 -5 10 -11 10 -5 0
-7 -4 -4 -10z"/>
<path d="M3175 4266 c-18 -13 -32 -51 -14 -40 5 3 7 9 5 13 -3 4 4 12 14 19
12 7 21 8 25 2 3 -6 1 -10 -4 -10 -26 0 -8 -15 18 -16 l29 -2 -25 24 c-31 28
-25 27 -48 10z"/>
<path d="M1536 4253 c-6 -14 -5 -15 5 -6 7 7 10 15 7 18 -3 3 -9 -2 -12 -12z"/>
<path d="M2020 4266 c0 -2 7 -7 16 -10 8 -3 12 -2 9 4 -6 10 -25 14 -25 6z"/>
<path d="M3116 4238 c3 -5 10 -6 15 -3 13 9 11 12 -6 12 -8 0 -12 -4 -9 -9z"/>
<path d="M2010 4205 c-8 -10 -7 -14 2 -17 17 -6 48 2 48 12 0 14 -39 18 -50 5z"/>
<path d="M2150 4199 c0 -5 5 -7 10 -4 6 3 10 8 10 11 0 2 -4 4 -10 4 -5 0 -10
-5 -10 -11z"/>
<path d="M3596 4187 c3 -10 9 -15 12 -12 3 3 0 11 -7 18 -10 9 -11 8 -5 -6z"/>
<path d="M2062 4178 c-8 -8 -9 -15 -1 -25 16 -18 29 -16 29 5 0 15 -2 15 -11
2 -9 -12 -10 -11 -6 8 6 25 5 26 -11 10z"/>
<path d="M2095 4180 c3 -5 8 -10 11 -10 2 0 4 5 4 10 0 6 -5 10 -11 10 -5 0
-7 -4 -4 -10z"/>
<path d="M3276 4167 c3 -10 9 -15 12 -12 3 3 0 11 -7 18 -10 9 -11 8 -5 -6z"/>
<path d="M3570 4159 c0 -5 5 -7 11 -4 6 4 9 0 7 -11 -2 -13 3 -19 15 -17 11 0
16 -4 13 -12 -2 -7 4 -21 15 -31 10 -9 19 -14 19 -9 0 4 7 2 15 -5 8 -7 12
-17 8 -24 -4 -6 2 -4 13 4 29 22 30 24 12 17 -9 -3 -22 1 -30 10 -11 14 -10
15 12 9 21 -6 22 -5 7 4 -13 9 -22 9 -32 0 -8 -6 -16 -7 -19 -2 -3 6 0 12 8
15 7 3 16 15 19 26 3 12 1 19 -4 15 -5 -3 -9 -12 -9 -20 0 -8 -5 -14 -11 -14
-6 0 -8 9 -4 23 4 14 3 17 -3 9 -6 -10 -13 -8 -27 8 -20 22 -35 26 -35 9z"/>
<path d="M2030 4035 c0 -8 2 -15 4 -15 2 0 6 7 10 15 3 8 1 15 -4 15 -6 0 -10
-7 -10 -15z"/>
<path d="M2058 4039 c-4 -10 1 -15 13 -16 10 -1 19 3 19 8 0 6 -4 8 -9 5 -5
-4 -11 -1 -13 6 -3 8 -6 7 -10 -3z"/>
<path d="M3170 4041 c0 -6 4 -13 10 -16 6 -3 7 1 4 9 -7 18 -14 21 -14 7z"/>
<path d="M3515 4008 c4 -9 13 -19 22 -22 12 -5 13 -9 3 -21 -9 -10 -9 -15 -1
-15 6 0 11 6 11 13 0 9 2 9 9 -1 7 -11 9 -11 14 2 3 8 2 18 -4 21 -5 4 -6 12
-3 18 5 8 3 8 -6 0 -11 -10 -17 -9 -32 4 -17 15 -18 15 -13 1z"/>
<path d="M3813 4005 c0 -8 4 -12 9 -9 5 3 6 10 3 15 -9 13 -12 11 -12 -6z"/>
<path d="M2050 3999 c0 -5 5 -7 10 -4 6 3 10 8 10 11 0 2 -4 4 -10 4 -5 0 -10
-5 -10 -11z"/>
<path d="M3750 3999 c0 -5 5 -7 10 -4 6 3 10 8 10 11 0 2 -4 4 -10 4 -5 0 -10
-5 -10 -11z"/>
<path d="M3920 3960 c-25 -8 -25 -8 -2 -9 16 -1 21 -5 16 -13 -4 -7 -3 -9 1
-5 7 6 18 40 12 36 -1 -1 -13 -5 -27 -9z"/>
<path d="M2215 3940 c-3 -5 -1 -10 4 -10 6 0 11 5 11 10 0 6 -2 10 -4 10 -3 0
-8 -4 -11 -10z"/>
<path d="M3976 3942 c-2 -4 -1 -14 4 -22 7 -11 9 -9 7 8 -1 24 -3 26 -11 14z"/>
<path d="M3570 3909 c-13 -7 -13 -9 0 -9 11 -1 10 -4 -5 -17 -16 -12 -16 -14
-3 -10 10 3 20 2 23 -4 4 -5 11 -7 16 -3 6 4 6 10 0 18 -6 7 -8 15 -5 18 10
11 -12 17 -26 7z"/>
<path d="M3866 3839 c2 -4 13 -7 24 -6 10 1 17 4 14 8 -2 4 -13 7 -24 6 -10
-1 -17 -4 -14 -8z"/>
<path d="M3924 3839 c-3 -6 -2 -15 3 -20 5 -5 9 -1 9 11 0 23 -2 24 -12 9z"/>
<path d="M3755 3831 c3 -2 -2 -12 -10 -21 -14 -15 -13 -17 2 -17 14 0 53 31
53 42 0 0 -11 1 -25 1 -13 0 -22 -2 -20 -5z m25 -5 c0 -2 -8 -10 -17 -17 -16
-13 -17 -12 -4 4 13 16 21 21 21 13z"/>
<path d="M3850 3820 c0 -5 5 -10 11 -10 5 0 7 5 4 10 -3 6 -8 10 -11 10 -2 0
-4 -4 -4 -10z"/>
<path d="M3890 3816 c0 -2 8 -10 18 -17 15 -13 16 -12 3 4 -13 16 -21 21 -21
13z"/>
<path d="M3253 3781 c-13 -11 -23 -23 -23 -27 0 -4 11 3 25 16 24 22 37 16 14
-7 -7 -7 -6 -12 5 -16 11 -4 13 -1 9 10 -5 11 -3 14 6 8 10 -6 11 -3 2 14 -14
25 -11 25 -38 2z"/>
<path d="M3306 3778 c3 -5 10 -6 15 -3 13 9 11 12 -6 12 -8 0 -12 -4 -9 -9z"/>
<path d="M3349 3772 c5 -9 18 -16 29 -17 12 -1 19 2 16 6 -2 4 1 9 8 11 7 3 5
7 -6 11 -9 4 -15 3 -12 -2 3 -5 -1 -12 -10 -15 -11 -4 -15 -2 -11 7 3 8 -1 14
-9 14 -9 0 -10 -5 -5 -15z"/>
<path d="M3791 2444 c13 -14 33 -30 44 -36 11 -6 3 6 -18 26 -43 41 -63 49
-26 10z"/>
<path d="M3869 2361 c12 -17 25 -31 28 -31 3 0 0 6 -6 13 -6 8 -9 16 -6 18 2
3 -5 11 -17 18 -20 13 -20 12 1 -18z"/>
<path d="M3910 2286 c0 -2 7 -9 15 -16 13 -11 14 -10 9 4 -5 14 -24 23 -24 12z"/>
<path d="M3943 2243 c4 -3 1 -13 -6 -22 -11 -14 -10 -14 5 -2 16 12 16 31 1
31 -4 0 -3 -3 0 -7z"/>
<path d="M3860 1580 c-1 -19 -3 -43 -5 -52 -2 -10 0 -18 5 -18 11 0 17 51 9
80 -6 22 -7 21 -9 -10z"/>
<path d="M3835 1479 c-10 -30 0 -33 13 -4 6 14 7 25 2 25 -5 0 -12 -9 -15 -21z"/>
<path d="M3800 1439 c0 -5 5 -7 10 -4 6 3 10 8 10 11 0 2 -4 4 -10 4 -5 0 -10
-5 -10 -11z"/>
</g>
</svg>
